<svg height="512" viewBox="0 0 64 64" width="512" xmlns="http://www.w3.org/2000/svg"><g id="dwg-file"><path d="m21 7h40v54h-40z" fill="#ff7956"/><path d="m49 7 8 8h-10a2.006 2.006 0 0 1 -2-2v-10z" fill="#ffda44"/><path d="m57 15v42h-40v-54h28v10a2.006 2.006 0 0 0 2 2z" fill="#ffeb99"/><path d="m3 22h50v20h-50z" fill="#2488ff"/><path d="m61 6h-11.59l-3.7-3.71a1.033 1.033 0 0 0 -.71-.29h-28a1 1 0 0 0 -1 1v18h-13a1 1 0 0 0 -1 1v20a1 1 0 0 0 1 1h13v14a1 1 0 0 0 1 1h3v3a1 1 0 0 0 1 1h40a1 1 0 0 0 1-1v-54a1 1 0 0 0 -1-1zm-15-.59 8.59 8.59h-7.59a1 1 0 0 1 -1-1zm-42 35.59v-18h48v18zm14 15v-13h35a1 1 0 0 0 1-1v-20a1 1 0 0 0 -1-1h-35v-17h26v9a3.009 3.009 0 0 0 3 3h9v40zm42 4h-38v-2h35a1 1 0 0 0 1-1v-42a1.033 1.033 0 0 0 -.29-.71l-6.3-6.29h8.59z"/><path d="m18 25h-6a1 1 0 0 0 -1 1v12a1 1 0 0 0 1 1h6a3 3 0 0 0 3-3v-8a3 3 0 0 0 -3-3zm1 11a1 1 0 0 1 -1 1h-5v-10h5a1 1 0 0 1 1 1z"/><path d="m33 25v13a1 1 0 0 1 -1 1h-8a1 1 0 0 1 -1-1v-13h2v12h2v-5h2v5h2v-12z"/><path d="m44 25h-8a1 1 0 0 0 -1 1v12a1 1 0 0 0 1 1h8a1 1 0 0 0 1-1v-6a1 1 0 0 0 -1-1h-4v2h3v4h-6v-10h6v2h2v-3a1 1 0 0 0 -1-1z"/></g></svg>